<svg width="572" height="120" viewBox="0 0 572 120" fill="none" xmlns="http://www.w3.org/2000/svg">
<path d="M137.766 93.6585V0H169.412C176.76 0 182.766 1.32622 187.43 3.97866C192.125 6.60061 195.601 10.1524 197.857 14.6341C200.113 19.1159 201.241 24.1159 201.241 29.6341C201.241 35.1524 200.113 40.1677 197.857 44.6799C195.631 49.1921 192.186 52.7896 187.522 55.4726C182.857 58.125 176.881 59.4512 169.595 59.4512H146.912V49.3902H169.229C174.26 49.3902 178.299 48.5213 181.348 46.7835C184.397 45.0457 186.607 42.6982 187.979 39.7409C189.381 36.753 190.083 33.3841 190.083 29.6341C190.083 25.8841 189.381 22.5305 187.979 19.5732C186.607 16.6159 184.381 14.2988 181.302 12.622C178.223 10.9146 174.138 10.061 169.046 10.061H149.107V93.6585H137.766Z" fill="white"/>
<path d="M242.078 95.122C235.737 95.122 230.173 93.6128 225.386 90.5945C220.63 87.5762 216.91 83.3537 214.228 77.9268C211.575 72.5 210.249 66.1585 210.249 58.9024C210.249 51.5854 211.575 45.1982 214.228 39.7409C216.91 34.2835 220.63 30.0457 225.386 27.0274C230.173 24.0091 235.737 22.5 242.078 22.5C248.42 22.5 253.968 24.0091 258.724 27.0274C263.511 30.0457 267.231 34.2835 269.883 39.7409C272.566 45.1982 273.907 51.5854 273.907 58.9024C273.907 66.1585 272.566 72.5 269.883 77.9268C267.231 83.3537 263.511 87.5762 258.724 90.5945C253.968 93.6128 248.42 95.122 242.078 95.122ZM242.078 85.4268C246.895 85.4268 250.859 84.1921 253.968 81.7226C257.078 79.253 259.38 76.0061 260.874 71.9817C262.368 67.9573 263.115 63.5976 263.115 58.9024C263.115 54.2073 262.368 49.8323 260.874 45.7774C259.38 41.7226 257.078 38.4451 253.968 35.9451C250.859 33.4451 246.895 32.1951 242.078 32.1951C237.261 32.1951 233.298 33.4451 230.188 35.9451C227.078 38.4451 224.776 41.7226 223.282 45.7774C221.788 49.8323 221.042 54.2073 221.042 58.9024C221.042 63.5976 221.788 67.9573 223.282 71.9817C224.776 76.0061 227.078 79.253 230.188 81.7226C233.298 84.1921 237.261 85.4268 242.078 85.4268Z" fill="white"/>
<path d="M301.175 0V93.6585H290.382V0H301.175Z" fill="white"/>
<path d="M327.894 120C326.064 120 324.433 119.848 323 119.543C321.567 119.268 320.577 118.994 320.028 118.72L322.772 109.207C325.394 109.878 327.711 110.122 329.723 109.939C331.735 109.756 333.519 108.857 335.074 107.241C336.659 105.655 338.107 103.079 339.418 99.5122L341.43 94.0244L315.455 23.4146H327.162L346.552 79.3902H347.284L366.674 23.4146H378.381L348.564 103.902C347.223 107.53 345.561 110.534 343.58 112.912C341.598 115.32 339.296 117.104 336.674 118.262C334.083 119.421 331.156 120 327.894 120Z" fill="white"/>
<path d="M412.047 95.3049C407.596 95.3049 403.556 94.4665 399.928 92.7896C396.3 91.0823 393.419 88.628 391.285 85.4268C389.151 82.1951 388.084 78.2927 388.084 73.7195C388.084 69.6951 388.876 66.4329 390.462 63.9329C392.047 61.4024 394.166 59.4207 396.818 57.9878C399.471 56.5549 402.398 55.4878 405.599 54.7866C408.831 54.0549 412.078 53.4756 415.34 53.0488C419.608 52.5 423.068 52.0884 425.721 51.814C428.404 51.5091 430.355 51.0061 431.575 50.3049C432.825 49.6037 433.45 48.3841 433.45 46.6463V46.2805C433.45 41.7683 432.215 38.2622 429.745 35.7622C427.306 33.2622 423.602 32.0122 418.632 32.0122C413.48 32.0122 409.44 33.1402 406.514 35.3963C403.587 37.6524 401.529 40.061 400.34 42.622L390.096 38.9634C391.925 34.6951 394.364 31.3719 397.413 28.9939C400.492 26.5854 403.846 24.9085 407.474 23.9634C411.133 22.9878 414.73 22.5 418.267 22.5C420.523 22.5 423.114 22.7744 426.041 23.3232C428.998 23.8415 431.849 24.9238 434.593 26.5701C437.367 28.2165 439.669 30.7012 441.498 34.0244C443.328 37.3476 444.242 41.7988 444.242 47.3781V93.6585H433.45V84.1463H432.901C432.169 85.6707 430.95 87.3018 429.242 89.0396C427.535 90.7774 425.264 92.2561 422.428 93.4756C419.593 94.6951 416.132 95.3049 412.047 95.3049ZM413.693 85.6098C417.962 85.6098 421.559 84.7713 424.486 83.0945C427.443 81.4177 429.669 79.2531 431.163 76.6006C432.687 73.9482 433.45 71.1585 433.45 68.2317V58.3537C432.992 58.9024 431.986 59.4055 430.431 59.8628C428.907 60.2896 427.139 60.6707 425.126 61.0061C423.145 61.311 421.209 61.5854 419.318 61.8293C417.459 62.0427 415.95 62.2256 414.791 62.3781C411.986 62.7439 409.364 63.3384 406.925 64.1616C404.517 64.9543 402.565 66.1585 401.072 67.7744C399.608 69.3598 398.876 71.5244 398.876 74.2683C398.876 78.0183 400.264 80.8537 403.038 82.7744C405.843 84.6646 409.395 85.6098 413.693 85.6098Z" fill="white"/>
<path d="M474.734 51.4024V93.6585H463.941V23.4146H474.368V34.3902H475.283C476.929 30.8232 479.429 27.9573 482.783 25.7927C486.136 23.5976 490.466 22.5 495.77 22.5C500.527 22.5 504.688 23.4756 508.255 25.4268C511.822 27.3476 514.597 30.2744 516.578 34.2073C518.56 38.1098 519.551 43.0488 519.551 49.0244V93.6585H508.758V49.7561C508.758 44.2378 507.325 39.939 504.459 36.8598C501.594 33.75 497.661 32.1951 492.661 32.1951C489.216 32.1951 486.136 32.9421 483.423 34.436C480.74 35.9299 478.621 38.1098 477.066 40.9756C475.511 43.8415 474.734 47.3171 474.734 51.4024Z" fill="white"/>
<path d="M569.822 23.4146V32.561H533.419V23.4146H569.822ZM544.029 6.58537H554.822V73.5366C554.822 76.5854 555.264 78.8719 556.148 80.3963C557.062 81.8902 558.221 82.8963 559.623 83.4146C561.056 83.9024 562.565 84.1463 564.151 84.1463C565.34 84.1463 566.315 84.0854 567.078 83.9634C567.84 83.811 568.45 83.689 568.907 83.5976L571.102 93.2927C570.37 93.5671 569.349 93.8415 568.038 94.1159C566.727 94.4207 565.065 94.5732 563.053 94.5732C560.004 94.5732 557.017 93.9177 554.09 92.6067C551.193 91.2957 548.785 89.2988 546.864 86.6159C544.974 83.9329 544.029 80.5488 544.029 76.4634V6.58537Z" fill="white"/>
<path d="M0.3125 63.0212H85.0343" stroke="#A8D820" stroke-width="6.87779"/>
<path d="M0.3125 84.9053H85.0343" stroke="#A8D820" stroke-width="6.87779"/>
<path d="M0 42.7004C48.4571 42.7004 64.4011 45.514 82.5335 6.12305" stroke="#A8D820" stroke-width="6.87779"/>
<circle cx="79.408" cy="84.5923" r="8.75355" fill="#A8D820" stroke="#A8D820" stroke-width="0.625253"/>
<circle cx="79.408" cy="62.7085" r="8.75355" fill="#A8D820" stroke="#A8D820" stroke-width="0.625253"/>
<circle cx="79.408" cy="11.4375" r="8.75355" fill="#A8D820" stroke="#A8D820" stroke-width="0.625253"/>
</svg>
